<?xml version="1.0" encoding="utf-8"?>
<!-- Uploaded to: SVG Repo, www.svgrepo.com, Generator: SVG Repo Mixer Tools -->
<svg width="800px" height="800px" viewBox="0 0 24 24" fill="none" xmlns="http://www.w3.org/2000/svg">
<g id="style=bulk">
<g id="close">
<path id="rectangle" d="M1.25 7.25C1.25 3.93629 3.93629 1.25 7.25 1.25H16.75C20.0637 1.25 22.75 3.93629 22.75 7.25V16.75C22.75 20.0637 20.0637 22.75 16.75 22.75H7.25C3.93629 22.75 1.25 20.0637 1.25 16.75V7.25Z" fill="#BFBFBF"/>
<path id="vector (Stroke)" fill-rule="evenodd" clip-rule="evenodd" d="M7.18298 7.18298C7.42696 6.93901 7.82253 6.93901 8.06651 7.18298L16.817 15.9335C17.061 16.1775 17.061 16.573 16.817 16.817C16.573 17.061 16.1775 17.061 15.9335 16.817L7.18298 8.06651C6.93901 7.82253 6.93901 7.42696 7.18298 7.18298Z" fill="#000000"/>
<path id="vector (Stroke)_2" fill-rule="evenodd" clip-rule="evenodd" d="M16.817 7.18299C17.061 7.42697 17.061 7.82254 16.817 8.06652L8.0665 16.817C7.82252 17.061 7.42695 17.061 7.18298 16.817C6.939 16.573 6.93901 16.1775 7.18299 15.9335L15.9335 7.18298C16.1775 6.939 16.573 6.93901 16.817 7.18299Z" fill="#000000"/>
</g>
</g>
</svg>